<svg width="512" height="512" viewBox="0 0 512 512" fill="none" xmlns="http://www.w3.org/2000/svg">
  <!-- Document base with rounded corners -->
  <rect x="56" y="28" width="330" height="432" rx="44" ry="44" fill="#3173F6"/>
  
  <!-- Fold: white triangle at top-right corner -->
  <path d="M280 28 L386 28 L386 134 Z" fill="#3173F6"/>
  <path d="M280 28 L280 100 C280 118 294 134 312 134 L386 134 L280 28Z" fill="#5A9BFF"/>
  <path d="M280 28 L280 100 C280 118 294 134 312 134 L386 134" fill="none" stroke="white" stroke-width="5"/>

  <!-- Content lines (White, thick) -->
  <rect x="116" y="190" width="210" height="26" rx="13" fill="white"/>
  <rect x="116" y="256" width="210" height="26" rx="13" fill="white"/>
  <rect x="116" y="322" width="150" height="26" rx="13" fill="white"/>

  <!-- White circle background for refresh icon - LARGE -->
  <circle cx="356" cy="396" r="100" fill="white"/>

  <!-- Refresh/sync C-arrow - thick filled shape -->
  <!-- Outer arc -->
  <path d="
    M 384 332
    A 78 78 0 1 0 404 388
    L 386 388
    A 58 58 0 1 1 368 348
    L 368 370
    L 412 340
    L 362 310
    L 362 332
    Z
  " fill="#3173F6"/>
</svg>
